# xmcd
#
# Track frame offsets:
#	150
#	14697
#	28810
#
# Disc length: 585 seconds
#
# Revision: 0
# Processed by: cddbd v1.5.2PL0 Copyright (c) Steve Scherf et al.
# Submitted via: dBpowerAMP V4.0
#
DISCID=20024703
DTITLE=Geier Sturzflug - Kuck Ma Hier, Kuck Ma Da
DYEAR=1900
DGENRE=Pop
TTITLE0=Kuck Ma Hier, Kuck Ma Da (Radio Edit)
TTITLE1=Kuck Ma Hier, Kuck Ma Da (die Tanzbär Ver.)
TTITLE2=Wolfgang (die Antwort auf W.P:)
EXTD=
EXTT0=
EXTT1=
EXTT2=
PLAYORDER=
